<mxfile host="app.diagrams.net" agent="Mozilla/5.0 (X11; Linux x86_64) AppleWebKit/537.36 (KHTML, like Gecko) Chrome/128.0.0.0 Safari/537.36" version="24.7.10">
  <diagram id="C5RBs43oDa-KdzZeNtuy" name="Page-1">
    <mxGraphModel dx="1608" dy="754" grid="1" gridSize="10" guides="1" tooltips="1" connect="1" arrows="1" fold="1" page="1" pageScale="1" pageWidth="827" pageHeight="1169" math="0" shadow="0">
      <root>
        <mxCell id="WIyWlLk6GJQsqaUBKTNV-0" />
        <mxCell id="WIyWlLk6GJQsqaUBKTNV-1" parent="WIyWlLk6GJQsqaUBKTNV-0" />
        <mxCell id="WIyWlLk6GJQsqaUBKTNV-2" value="" style="rounded=0;html=1;jettySize=auto;orthogonalLoop=1;fontSize=11;endArrow=block;endFill=0;endSize=8;strokeWidth=1;shadow=0;labelBackgroundColor=none;edgeStyle=orthogonalEdgeStyle;" parent="WIyWlLk6GJQsqaUBKTNV-1" source="WIyWlLk6GJQsqaUBKTNV-3" target="WIyWlLk6GJQsqaUBKTNV-6" edge="1">
          <mxGeometry relative="1" as="geometry" />
        </mxCell>
        <UserObject label="&lt;div style=&quot;box-sizing: border-box; justify-content: space-between !important; display: flex !important; gap: var(--base-size-8) !important; color: rgb(240, 246, 252); font-family: -apple-system, BlinkMacSystemFont, &amp;quot;Segoe UI&amp;quot;, &amp;quot;Noto Sans&amp;quot;, Helvetica, Arial, sans-serif, &amp;quot;Apple Color Emoji&amp;quot;, &amp;quot;Segoe UI Emoji&amp;quot;; font-size: 14px; font-style: normal; font-variant-ligatures: normal; font-variant-caps: normal; font-weight: 400; letter-spacing: normal; orphans: 2; text-align: start; text-indent: 0px; text-transform: none; widows: 2; word-spacing: 0px; -webkit-text-stroke-width: 0px; white-space: normal; text-decoration-thickness: initial; text-decoration-style: initial; text-decoration-color: initial;&quot; class=&quot;d-flex flex-justify-between gap-2&quot;&gt;&lt;div style=&quot;box-sizing: border-box; display: flex !important;&quot; class=&quot;d-flex&quot;&gt;&lt;div style=&quot;box-sizing: border-box; color: var(--fgColor-default, var(--color-fg-default)); font-size: 16px; font-weight: var(--base-text-weight-semibold, 600);&quot; class=&quot;commit-title markdown-title&quot;&gt;DER de venta de partes de electrodomesticos&lt;/div&gt;&lt;/div&gt;&lt;a style=&quot;box-sizing: border-box; background-color: var(--button-default-bgColor-rest, var(--color-btn-bg)); color: var(--button-default-fgColor-rest, var(--color-btn-text)); text-decoration: none; position: relative; display: inline-block; padding: 5px var(--base-size-16); font-size: 14px; font-weight: var(--base-text-weight-medium, 500); line-height: 20px; white-space: nowrap; vertical-align: middle; cursor: pointer; user-select: none; border-width: 1px; border-style: solid; border-color: var(--button-default-borderColor-rest, var(--color-btn-border)); border-image: initial; border-radius: 6px; appearance: none; box-shadow: var(--button-default-shadow-resting, var(--color-btn-shadow)),var(--button-default-shadow-inset, var(--color-btn-inset-shadow)); transition: color 80ms cubic-bezier(0.33, 1, 0.68, 1), background-color, box-shadow, border-color; align-self: flex-start !important;&quot; aria-describedby=&quot;tooltip-aff788f5-984e-4f58-a3be-b0f32147d906&quot; rel=&quot;nofollow&quot; class=&quot;btn flex-self-start&quot; href=&quot;https://github.com/Yaliherrera02/Labo_de_datos_2doCuat_2024/tree/501cf8535ca8d63417c728b8d9aaf648859899ac&quot; id=&quot;browse-at-time-link&quot;&gt;Browse files&lt;/a&gt;&lt;/div&gt;&lt;div style=&quot;box-sizing: border-box; padding-bottom: var(--base-size-8, 8px) !important; font-size: 12px; color: var(--fgColor-muted, var(--color-fg-muted)); vertical-align: middle; font-family: -apple-system, BlinkMacSystemFont, &amp;quot;Segoe UI&amp;quot;, &amp;quot;Noto Sans&amp;quot;, Helvetica, Arial, sans-serif, &amp;quot;Apple Color Emoji&amp;quot;, &amp;quot;Segoe UI Emoji&amp;quot;; font-style: normal; font-variant-ligatures: normal; font-variant-caps: normal; font-weight: 400; letter-spacing: normal; orphans: 2; text-align: start; text-indent: 0px; text-transform: none; widows: 2; word-spacing: 0px; -webkit-text-stroke-width: 0px; white-space: normal; text-decoration-thickness: initial; text-decoration-style: initial; text-decoration-color: initial;&quot; class=&quot;commit-branches pb-2&quot;&gt;&lt;br class=&quot;Apple-interchange-newline&quot;&gt;&lt;/div&gt;" link="&lt;div style=&quot;box-sizing: border-box; justify-content: space-between !important; display: flex !important; gap: var(--base-size-8) !important; color: rgb(240, 246, 252); font-family: -apple-system, BlinkMacSystemFont, &amp;quot;Segoe UI&amp;quot;, &amp;quot;Noto Sans&amp;quot;, Helvetica, Arial, sans-serif, &amp;quot;Apple Color Emoji&amp;quot;, &amp;quot;Segoe UI Emoji&amp;quot;; font-size: 14px; font-style: normal; font-variant-ligatures: normal; font-variant-caps: normal; font-weight: 400; letter-spacing: normal; orphans: 2; text-align: start; text-indent: 0px; text-transform: none; widows: 2; word-spacing: 0px; -webkit-text-stroke-width: 0px; white-space: normal; text-decoration-thickness: initial; text-decoration-style: initial; text-decoration-color: initial;&quot; class=&quot;d-flex flex-justify-between gap-2&quot;&gt;&lt;div style=&quot;box-sizing: border-box; display: flex !important;&quot; class=&quot;d-flex&quot;&gt;&lt;div style=&quot;box-sizing: border-box; color: var(--fgColor-default, var(--color-fg-default)); font-size: 16px; font-weight: var(--base-text-weight-semibold, 600);&quot; class=&quot;commit-title markdown-title&quot;&gt;DER de venta de partes de electrodomesticos&lt;/div&gt;&lt;/div&gt;&lt;a style=&quot;box-sizing: border-box; background-color: var(--button-default-bgColor-rest, var(--color-btn-bg)); color: var(--button-default-fgColor-rest, var(--color-btn-text)); text-decoration: none; position: relative; display: inline-block; padding: 5px var(--base-size-16); font-size: 14px; font-weight: var(--base-text-weight-medium, 500); line-height: 20px; white-space: nowrap; vertical-align: middle; cursor: pointer; user-select: none; border-width: 1px; border-style: solid; border-color: var(--button-default-borderColor-rest, var(--color-btn-border)); border-image: initial; border-radius: 6px; appearance: none; box-shadow: var(--button-default-shadow-resting, var(--color-btn-shadow)),var(--button-default-shadow-inset, var(--color-btn-inset-shadow)); transition: color 80ms cubic-bezier(0.33, 1, 0.68, 1), background-color, box-shadow, border-color; align-self: flex-start !important;&quot; aria-describedby=&quot;tooltip-aff788f5-984e-4f58-a3be-b0f32147d906&quot; rel=&quot;nofollow&quot; class=&quot;btn flex-self-start&quot; href=&quot;https://github.com/Yaliherrera02/Labo_de_datos_2doCuat_2024/tree/501cf8535ca8d63417c728b8d9aaf648859899ac&quot; id=&quot;browse-at-time-link&quot;&gt;Browse files&lt;/a&gt;&lt;/div&gt;&lt;div style=&quot;box-sizing: border-box; padding-bottom: var(--base-size-8, 8px) !important; font-size: 12px; color: var(--fgColor-muted, var(--color-fg-muted)); vertical-align: middle; font-family: -apple-system, BlinkMacSystemFont, &amp;quot;Segoe UI&amp;quot;, &amp;quot;Noto Sans&amp;quot;, Helvetica, Arial, sans-serif, &amp;quot;Apple Color Emoji&amp;quot;, &amp;quot;Segoe UI Emoji&amp;quot;; font-style: normal; font-variant-ligatures: normal; font-variant-caps: normal; font-weight: 400; letter-spacing: normal; orphans: 2; text-align: start; text-indent: 0px; text-transform: none; widows: 2; word-spacing: 0px; -webkit-text-stroke-width: 0px; white-space: normal; text-decoration-thickness: initial; text-decoration-style: initial; text-decoration-color: initial;&quot; class=&quot;commit-branches pb-2&quot;&gt;&lt;br class=&quot;Apple-interchange-newline&quot;&gt;&lt;/div&gt;" id="WIyWlLk6GJQsqaUBKTNV-3">
          <mxCell style="rounded=1;whiteSpace=wrap;html=1;fontSize=12;glass=0;strokeWidth=1;shadow=0;" parent="WIyWlLk6GJQsqaUBKTNV-1" vertex="1">
            <mxGeometry x="160" y="80" width="120" height="40" as="geometry" />
          </mxCell>
        </UserObject>
        <mxCell id="WIyWlLk6GJQsqaUBKTNV-4" value="Yes" style="rounded=0;html=1;jettySize=auto;orthogonalLoop=1;fontSize=11;endArrow=block;endFill=0;endSize=8;strokeWidth=1;shadow=0;labelBackgroundColor=none;edgeStyle=orthogonalEdgeStyle;" parent="WIyWlLk6GJQsqaUBKTNV-1" source="WIyWlLk6GJQsqaUBKTNV-6" target="WIyWlLk6GJQsqaUBKTNV-10" edge="1">
          <mxGeometry y="20" relative="1" as="geometry">
            <mxPoint as="offset" />
          </mxGeometry>
        </mxCell>
        <mxCell id="WIyWlLk6GJQsqaUBKTNV-5" value="No" style="edgeStyle=orthogonalEdgeStyle;rounded=0;html=1;jettySize=auto;orthogonalLoop=1;fontSize=11;endArrow=block;endFill=0;endSize=8;strokeWidth=1;shadow=0;labelBackgroundColor=none;" parent="WIyWlLk6GJQsqaUBKTNV-1" source="WIyWlLk6GJQsqaUBKTNV-6" target="WIyWlLk6GJQsqaUBKTNV-7" edge="1">
          <mxGeometry y="10" relative="1" as="geometry">
            <mxPoint as="offset" />
          </mxGeometry>
        </mxCell>
        <mxCell id="WIyWlLk6GJQsqaUBKTNV-6" value="Lamp&lt;br&gt;plugged in?" style="rhombus;whiteSpace=wrap;html=1;shadow=0;fontFamily=Helvetica;fontSize=12;align=center;strokeWidth=1;spacing=6;spacingTop=-4;" parent="WIyWlLk6GJQsqaUBKTNV-1" vertex="1">
          <mxGeometry x="170" y="170" width="100" height="80" as="geometry" />
        </mxCell>
        <mxCell id="WIyWlLk6GJQsqaUBKTNV-7" value="Plug in lamp" style="rounded=1;whiteSpace=wrap;html=1;fontSize=12;glass=0;strokeWidth=1;shadow=0;" parent="WIyWlLk6GJQsqaUBKTNV-1" vertex="1">
          <mxGeometry x="320" y="190" width="120" height="40" as="geometry" />
        </mxCell>
        <mxCell id="WIyWlLk6GJQsqaUBKTNV-8" value="No" style="rounded=0;html=1;jettySize=auto;orthogonalLoop=1;fontSize=11;endArrow=block;endFill=0;endSize=8;strokeWidth=1;shadow=0;labelBackgroundColor=none;edgeStyle=orthogonalEdgeStyle;" parent="WIyWlLk6GJQsqaUBKTNV-1" source="WIyWlLk6GJQsqaUBKTNV-10" target="WIyWlLk6GJQsqaUBKTNV-11" edge="1">
          <mxGeometry x="0.3333" y="20" relative="1" as="geometry">
            <mxPoint as="offset" />
          </mxGeometry>
        </mxCell>
        <mxCell id="WIyWlLk6GJQsqaUBKTNV-9" value="Yes" style="edgeStyle=orthogonalEdgeStyle;rounded=0;html=1;jettySize=auto;orthogonalLoop=1;fontSize=11;endArrow=block;endFill=0;endSize=8;strokeWidth=1;shadow=0;labelBackgroundColor=none;" parent="WIyWlLk6GJQsqaUBKTNV-1" source="WIyWlLk6GJQsqaUBKTNV-10" target="WIyWlLk6GJQsqaUBKTNV-12" edge="1">
          <mxGeometry y="10" relative="1" as="geometry">
            <mxPoint as="offset" />
          </mxGeometry>
        </mxCell>
        <mxCell id="WIyWlLk6GJQsqaUBKTNV-10" value="Bulb&lt;br&gt;burned out?" style="rhombus;whiteSpace=wrap;html=1;shadow=0;fontFamily=Helvetica;fontSize=12;align=center;strokeWidth=1;spacing=6;spacingTop=-4;" parent="WIyWlLk6GJQsqaUBKTNV-1" vertex="1">
          <mxGeometry x="170" y="290" width="100" height="80" as="geometry" />
        </mxCell>
        <mxCell id="WIyWlLk6GJQsqaUBKTNV-11" value="Repair Lamp" style="rounded=1;whiteSpace=wrap;html=1;fontSize=12;glass=0;strokeWidth=1;shadow=0;" parent="WIyWlLk6GJQsqaUBKTNV-1" vertex="1">
          <mxGeometry x="160" y="430" width="120" height="40" as="geometry" />
        </mxCell>
        <mxCell id="WIyWlLk6GJQsqaUBKTNV-12" value="Replace Bulb" style="rounded=1;whiteSpace=wrap;html=1;fontSize=12;glass=0;strokeWidth=1;shadow=0;" parent="WIyWlLk6GJQsqaUBKTNV-1" vertex="1">
          <mxGeometry x="320" y="310" width="120" height="40" as="geometry" />
        </mxCell>
      </root>
    </mxGraphModel>
  </diagram>
</mxfile>
